<?xml version="1.0" encoding="UTF-8" standalone="no"?><!DOCTYPE svg PUBLIC "-//W3C//DTD SVG 1.1//EN" "http://www.w3.org/Graphics/SVG/1.1/DTD/svg11.dtd"><svg width="100%" height="100%" viewBox="0 0 167 292" version="1.1" xmlns="http://www.w3.org/2000/svg" xmlns:xlink="http://www.w3.org/1999/xlink" xml:space="preserve" xmlns:serif="http://www.serif.com/" style="fill-rule:evenodd;clip-rule:evenodd;stroke-linejoin:round;stroke-miterlimit:2;"><path d="M76.72,0l14.734,0c51.166,0 74.994,25.209 74.994,61.986l0,170.88c0,37.065 -23.828,58.936 -74.994,58.936l-14.734,0c-51.166,0 -76.72,-23.079 -76.72,-60.145l0,-169.671c0,-38.331 26.36,-61.986 76.72,-61.986Zm6.676,66.648c-26.993,0 -40.806,21.18 -40.806,39.367c0,15.194 7.77,28.202 21.238,35.051l-15.482,79.656l66.13,0l-13.813,-79.656c15.079,-7.022 22.159,-21.41 22.159,-35.454c0,-18.59 -14.216,-38.964 -39.425,-38.964l-0.001,0Z" style="fill:#0b0a0c;fill-rule:nonzero;"/></svg>